<svg id="Laag_1" data-name="Laag 1" xmlns="http://www.w3.org/2000/svg" viewBox="0 0 1920 118.93"><defs><style>.cls-1{fill:#fff;}</style></defs><path class="cls-1" d="M953,66.81l-3.85.39C950.92,67.08,952.09,67,953,66.81Z"/><path class="cls-1" d="M980.77,66.91l.68-.68C980.16,66.6,979.64,66.88,980.77,66.91Z"/><path class="cls-1" d="M1494.65,49.86c-5.59-1.29-11.85-3.29-11.17-1.73l1.72,1.51A46,46,0,0,1,1494.65,49.86Z"/><path class="cls-1" d="M1208.77,58.88l1.63.46c1.36-.51,2.64-1,3.79-1.44C1212.56,58.21,1210.71,58.54,1208.77,58.88Z"/><path class="cls-1" d="M1204.82,65.14l-7.38-1A71.23,71.23,0,0,0,1204.82,65.14Z"/><path class="cls-1" d="M801,68.42,796.5,70C803.52,70,800.43,69.17,801,68.42Z"/><path class="cls-1" d="M1738,50.26a118,118,0,0,0-12-.91C1731.78,50.22,1736.47,51.52,1738,50.26Z"/><path class="cls-1" d="M963.9,50.77c-2.36.27-3.36.58-3.29.92C963,51.43,964.4,51.14,963.9,50.77Z"/><path class="cls-1" d="M1712,49.35c.85.16,1.68.23,2.55.36,3.53-.25,7.09-.46,11.4-.36A38.46,38.46,0,0,0,1712,49.35Z"/><path class="cls-1" d="M249.88,67.16c-.41-.06-.89-.1-1.25-.18C248.51,67.19,249.06,67.2,249.88,67.16Z"/><path class="cls-1" d="M89.32,51.91c1.58-.1,4.16-.1,6.59-.12A50.34,50.34,0,0,0,89.32,51.91Z"/><path class="cls-1" d="M1843.7,49c3.61-.1.58-.16,0,0Z"/><path class="cls-1" d="M1861.24,55c-.77.17-1.35.39-1.44.74A2.47,2.47,0,0,1,1861.24,55Z"/><path class="cls-1" d="M1676.1,58.76h-.31C1676.86,59.05,1676.68,59,1676.1,58.76Z"/><path class="cls-1" d="M1849.13,49.73c-1.35-.19-2.91-.34-4.61-.45C1845.26,49.4,1846.66,49.54,1849.13,49.73Z"/><path class="cls-1" d="M1848.4,49l3.15.14C1852,48.91,1851.6,48.75,1848.4,49Z"/><path class="cls-1" d="M1838.68,49.13c2.06,0,4,0,5.84.15-.71-.1-1-.18-.82-.24C1842.65,49.07,1841.16,49.1,1838.68,49.13Z"/><path class="cls-1" d="M545.16,63.12c-.23,0-.51-.08-.77-.15C540.76,63.6,542.35,63.5,545.16,63.12Z"/><path class="cls-1" d="M1400.83,65.56c.17,0,.26-.06.41-.07l-.53-.06Z"/><path class="cls-1" d="M1387.89,66.68c5.51-1.88,8.64-1.65,12.82-1.25l-4.28-4.36Z"/><path class="cls-1" d="M1894.62,48.72c6.19,3.07-25.71-.13-15.76,3.1-7.33-2.87-12.69-1.21-22.27-3.66.3.71,3.4,1.35-5,1a10.8,10.8,0,0,1-1.85.62c-.26,0-.35,0-.57-.05l.46.08c-.36.11-.39.13.18,0a15.52,15.52,0,0,1,4.3,1.07c-4.19,1.62-17.61,1.57-22.15,2.41-5-.34,2.1-.81-.63-1.56L1824.51,53c-.67-1.56-13.3-2.6-1.51-3.52l-10.61-.07c-6.25-.87-14.85-1.22-20.15-.56-5-.34-12.65,1.73-8.29.5l-16.64,1-.16-.39c-16.42-.2-33.81,2.6-52.59-.23a150.07,150.07,0,0,1-20.5.43l-1.8-1.35c-7.1.47-21.32-1.36-24.37.05-7.66-3.64-34.46-.79-47-1.44l-.47,1.77c-8.59-.1-16.83.4-27.5,1.11l.65,1.56c-9.2,1.28-23.65-1.11-38.2-1,1-.59,4.68-.44,7.3-.08-17.39-3.53-36.68,2.57-52.44,0a31.37,31.37,0,0,1-9.53,0,5.5,5.5,0,0,0,1-.08c-.4,0-1,0-1.61,0-1.73-.27-3.52-.58-5.46-.83a41.2,41.2,0,0,0,4.59.84c-3,0-7.62.22-12.12.61l-1.92-1.67c-.37,0-.66,0-1,0-4.42-.62-3.56.8-1.2,2.06a53,53,0,0,0-6,1c-3.59-2.71-11.81.91-16.71-2-3,1.4-22.65,1.06-25,4-.15-.39-1.48-.57,1-.6-5-.33-10-.67-14.54.17l-2.13-2.14-11,2.87c-6.66-1.3-9.43-2.06-2.81-3.7-16,2.53-13,1-26.54,3.46l.66-1.38c-4.85.05-12.61,1.9-15.54.76-10.86-2.63-53.74-.36-81.61-2.8,5.4,4.06-13-1.82-14.07,1.33-1.62-1-5.5-1.51-1-2.34-14.23.94-21.37-1.53-31.2,1.13-1.63-1,3-1.41,1.6-2-1.14.21-4.52.84-6,.26s2.08-.8,4.33-1.22c-14.53.16-16,3.12-17.06,5.9-7.36-1.32-11-1.13-16.35.69-2.57-.91-6.84-1.86,2.19-2.18-5.08-.14-31-1.34-31.55.89-1.6-.57-7.1-.17-8.44.09-11.4-.13-12.4-.33-23.6-.12l3.11.36c-4.42,2.69-9.31.6-18.33.92l.26-.27c-20.7-1.94-8.94.93-29.35-1.29l1.11,1.68c-1.9,3.59-18.09-2.12-29.93-.75l4.27,1c-6.47,1.23-18.08-4.89-24.58-5.34-1.42-.31,2.24-.5,4.21-.73-17-2.12-2.2,2.18-14.88,2.7-2.34-1.19,3-3-5.52-3.23-4.25-.95-24.75,3.84-36.39,1.57,2.57.91,5.12,1.82-.77,2.5-9,.33-24.4-3.44-32.55-.57-1.15-.25-1.58-.48-1.63-.71-6.9.74-22.42,1.23-26.58,2.78-6.37-5.77-42.89,2.81-42.73-2.51l-21.23.28.56-.54c-13.57-.35-18.36.92-23.13,2.2-3.14-.36-.85-.86-.59-1.14-19.82-1.07-21.79-.84-38.41,1.81l-1.72-1.73c-4.51,1-28.66-2.71-48.1-.69.19-.2.6-.54,2.14-.78-21.87,2-52.36-4.79-60.37,1.5L686,54.42c18.68.49-2.78,2.73,4.9,3.77-7.34.37-19-1.89-10-2.22l1.41.32c3.32-3.28-23.2-1.16-22.7-3.4-36.74.17-72.55-1.65-107-1.79l4,2.55-12-.15c-3.15-.59-4.23-2,4.34-1.89-4.51-1.44-14.37,1.22-14.61,1.77-16.77-1,6.55-3,1.41-3l-7,.19,1.58.29c-5.66,1.05-6.17,2.15-16.46,2-6.51-.52-3.34-1.58-5.91-1.67,0-.19-.85-.27-3.93-.08L489,50.89l6,2c-6.7,1-14.22-.11-7.24,2.17-10.24-3.52-56.42-1.26-62.71-2.35-9.39,1.46-18.66,1.44-30.14,1.26,2.86.42,4.56,2.68-5.34,2.41,3.62-4.67-18.13-2-26.14-5.39,7.16,2.23-28.15.55-16.92,3.71-8.27-.38-.51-1.75-6.78-2.84-19.66,1.8-43.34-1.18-67.65-.57-.37.62,3.7,1.55-1.52,2.46l-12.83-3.06c-4.8.3-4.42,3.54-13.19,1.41,1.23.52,3.08,1.29-.14,1.49-47.62-3-97.31,2.44-145.67-3.17,6.55,1.19,2.18,1.31-2.82,1.35,3.25.29-.07,1.52.57,2.35L76.23,51.83c-3.69,2.31-21.71.16-23.82,2.36l6.41-.4c-8.53,2.61,11.93,5.78,10.68,9.12,9.55-3,25.18,4.38,40.84.15,3.46.68-3,1.07-1.1,1.85,4-1.43,8.77-1.73,17.66-1.09l-1,.36c25-.35,35.67,1.06,63.72,2l-2.08-1.65a58.39,58.39,0,0,1,10.12,1.15c6.91-2.51-16.93-.14-10.63-2.9,8,3.35,42.5,0,47.91,3.86,9.27,0-2.72-1.91,6.55-1.88l2.45,1,2.35-1.33c6.07.22,9.14,1.51,9.37,2.38-1.48-.1-4.19.25-5.77.32,7.88,1.22,22.22-.41,24.93,0l-8.91-.63c25.3-1,56.2.39,80.64-1.71L344.69,64c18.66-1.44,14.95.85,35.44.19l-.74.18a79.89,79.89,0,0,1,15.19-1.08c-5.18.92,9.74,1.77,2.95,2.79,20.24-1.55,10-1.22,23.38-4.11L424,63.28c4.56-1.17,4.94-1.79,15.18-2.12-8.4,1.11,6.53,2-2.87,3.43,21.47,2.83,31.89-2.85,41.74,1.28,9.87-3.57-18.58-2-13.06-2.75-4.62-1.17,8.14-2.67,14.88-2.31,6.87.08,11.67,4.58,28.93,4.51-1.72,0-1.83.25-3.55.23,6.46.91,12.66-1.23,20.58.25,4.45-2.16,10.29.12,11.57-2.63l-15.83.63c9-.72,17.39-3.94,32.18-2.38-1.15.56-5.55,1.29-8.58,1.7,4.33.81,8.33-.54,12.81.29-1.27,2.76-19.24.6-28.86,2.71,4.64,1.16,18.2-2,13.36,1,6.95-3.8,17,.48,28.7-2.42l-.77,1.65a58.63,58.63,0,0,1,9.08-1l-6.16,2.14c9.46-1.82,18.25,1.61,27.32.61-19,0-4.26-2-12.3-3.2,23.44-2.21,13.48,4.32,39.73,3.53-3.56.23-13.34-1-7.79-1.76,5,.34,11.6,1,14.66,1.85,17.39-.35-2.67-1.71,4.73-2.72,5.92,2,8.54-.82,16.17-1.47l0,1.68c19.81,1.08,5.25-3.5,23.09-2.2l-7.54,2.33,9.3-.6-1.92,1.91c10.12-1.41,13.27-1,23.18-.51-2.3-1.18,1.3-3.05,10.08-3.1,6,1-3.36,1.59,9.08,1.35-2.8,1.06-5.88,2.38-11.3.83-.55.55-2.76,1-3.34,1.6,6.45,1.14,16.2.26,20.71.24a33.74,33.74,0,0,1-4.87-.39l18-2.33c2.84.63.59,1.14-1.64,1.64,3.65-.19,6.18-1,11.55-1.11-1.39,1.37-1.06,2.78-8.66,3.42l17.18-1.51c1.15.59,8.82,1.63,6.59,2.13,9.52.81,23.37-2.65,36-1.59a17.94,17.94,0,0,1,4.66-.71c11.87.31,22.39,2,36.45.11l8,2.45c11-.56-10.81-3.09,7.54-4,13-.78,4.85,2.09,9.4,2.77C873.9,67.49,885.13,65,897.06,67c-3.95.46-7,.1-10.73.28l9.09,1.36c-11,2.23-18.92,1.46-10.38,3.37,1.29-4.73,35.34-.48,36.61-5.21l6,1c-1.72,0-2,.23-3.69.19,11.66,2.27,8.66-3.42,23.68-2.75,5.23.36,8.89,1,5.32,1.61l11.66-1.17c3.39.09,2.56.92-.81.82l17.79-.37-.14.14c2.54-.74,8.29-1.89,11.1-2.38,4.52.68-2.27.5-1.11,1.09l9.85-1.15c4,1.23-4.15,2.42-10.95,2.24,9.19,4.73,8.17-1.18,28,1.58l-9.3.59c6,2.69,13.25,1.71,23.77,3.39-2.49-.88-21-4.22-10.36-5.4a43.56,43.56,0,0,0,12.75-.42c0,1.68,5.68,1.27,12.73,1.17l-.48,2.23c7.62-.64,7-1.78,11.5-2.78,8.49.22,10.25,1.94,12.25,3.4,13.59.35-9.39-2.77,6.7-3.19,11.31.85,19.25-.06,32.78-1.39,7.91.77-1.39,1.36,1.45,2l7-1.78c1.72,0,1.16.59.88.87,5.91-.69.49-2.23,9.78-2.84,2.51-2.45,19.08,3.59,30.58.8,2.84.64-1.37,1.37-.5,2.23,15.78-1.83,13.53-1.33,26.49-3.79l11,1.46c-8.11-1.67,2.25-3.65,11.33-5.28-2.88-.81-5.34-1.51-7-1.85l14.49-1.2c1.75.37.29,1.14-2.08,2.07,1-.19,1.92-.37,2.65-.54,5.18.83,2.49,2.11-1.22,3.36-1.76-.44-3.51-.91-5.22-1.38-3.57,1.36-6.92,2.86-6.18,4.16a27.72,27.72,0,0,1,4.75-.6c-.93.37-1.53.7-1.1.92s2-.26,4.37-.83l3.3,2.49.8-1,19,1.55c13.56-2.5,25.35-6.18,46.88-7.21-5.34,1.83-1.15,3-1.44,5.14-5.87-2.29-16.67,1-27.82.51,5.82.24,4.54,1.27,3,1.62l19.9-2.07c-.45,1.76,4.22,1.32,9.42,2-3.93-3.49,14.83-2.33,22.92-3.39.51,1.17-1.43,2.36-11.31,2.08,10.9,2.63,14.08-4.1,24.77-1.87-2.41,0-3.71-.15-4.66.45,5.63-1,19.4-.22,16.16.8l-2.4,0c16,.41,48.73,0,51.12-2.94.16.38-2.1,3.57-3.07,4.17l28.57-10c-2.52,2.54,7.14,8.6-6.14,10a72,72,0,0,0,16.57-.12c-2.6-.36-6.48-3.68-2.93-3.91,9.75,2.83,6.77,1.51,18.79,3.93-3.89-.54.44-4.54,6.59-4.41-1,.6.52,3.94-1.73,4.36l15.33-3.92c-3.83.7-.68,3.32,2.75,4.43-1.59-.77,13.26.07,17.34-.32l-6.5-.91c17.31.59,17.1-5.51,34.27-5.3-2.07.8-5.13,5,3.6,5.47,4-2,17.72-9.65,32.92-11.2l2.91,1.15,11.66-1.31c-7.26,3-27.63,9.38-38.75,11.85,6.47.91,1.8,1.35,11.5,1.25,3.43,1.07-5.29,1.63-8.14,1.69l22.58.7c-1-2.35,17.28-2.35,16.41-4.3L1531.88,67c-1-2.34,14.19-6.64,30.19-6.23,4.07.93-3,4.17-2.71,5,2.08-.81,15.19-1.54,16.66-1L1569.23,66c8.91.88,14.54-3.1,25.24-.87,3.7.15,11,3,11.68,1.63-6-2.67-7.21-10.94-3.19-12.95,1.29.19,19.4,2.56,23.62,3.88,6.08,2.1-9.14,5-4,6.8.23-.64,3.59-1.43,5-1.69,3.88.55-1.61,2,6.82,1.69,1.41-2.37,17.15.21,4-2,8.25-.68,8.77.49,18.45.38-3.08-1.53,8.7-5.22,17-5.9-.48.61,1.37,1.39,2.27,1.75,16.91.22,26,1.3,41.75,1.31,1.45.58,9.06,1.28,5.82,2.3a38.77,38.77,0,0,1,9.21-1.29c9.41,2.06-10.84.32-3.66,2.79.61-1.38,12.57-1.9,19.5-2.76-2.13-2.14-16-.41-22.94.45,0-2.94,12-6,28.52-7.38,13.1-.73,5.68,1.9,8,1.48,24.6.52,21-5.13,41.39-3,8.1,1.87.36,3.72,2.16,5.08-10.67.71-16.38-1.19-23.61-1.12l8.9.89a58.94,58.94,0,0,1-14.4.55c6.8,1.69,41.56.32,60.54,1.88,3.38-.63,9.2-1.28,6.44-2l-6,.26c-5.52-1.51,11.3-2.09,3.7-2.8,8.05-1.06,17.08-2.73,28.42-1.87l2.13,2.13c-.24-.62-7.41-1.27-10.6-.62,4.73-1,17.39,2.89,22.57.1l-8-1.48M1022.21,66.16c-2.63.35-7.88,1.44-9.81.45C1015.4,64.69,1017.72,65.61,1022.21,66.16Zm206.56-4c-2,.55-5,.28-8.4-.36A42.61,42.61,0,0,1,1228.77,62.12Zm575.42-11.71-.28.08C1798,49.84,1800.12,50.1,1804.19,50.41Zm12.2.73c1.22-.23,1.14-.47.62-.7-.85.42-3.59.45-6.71.33C1811.17,51.21,1812.74,51.52,1816.39,51.14ZM506.66,51.8l2.37.44C503.67,52.73,505.18,52.29,506.66,51.8Z"/><path class="cls-1" d="M1205.35,64.41a1.83,1.83,0,0,1-1.13-.91C1203.19,63.78,1203.17,64.11,1205.35,64.41Z"/><path class="cls-1" d="M801.82,68.13l-.42,0a.89.89,0,0,0-.41.31Z"/><path class="cls-1" d="M1627.47,65.39a21.74,21.74,0,0,1-4.85-.86C1622.49,64.94,1623.63,65.28,1627.47,65.39Z"/><path class="cls-1" d="M1881,48.28l-7.82.44a33.09,33.09,0,0,1,7,.55C1880.07,48.88,1878.57,48.31,1881,48.28Z"/><path class="cls-1" d="M1888.25,53.87c.62,1.41,5.52.93,11,.67-.33,0-.64,0-1,0C1899.89,52.57,1894.05,53.22,1888.25,53.87Z"/><path class="cls-1" d="M1831.86,50.2c2.59.37,1.63-1.8,3.09-1.23C1837.85,47.17,1817.65,51.15,1831.86,50.2Z"/><polygon class="cls-1" points="1892.68 58.53 1890.72 56.78 1887.65 58.19 1892.68 58.53"/><path class="cls-1" d="M1849.47,57.25l8.74.48c-.13-.29,1-.46,2.35-.59C1855.17,57.08,1849.26,56.73,1849.47,57.25Z"/><path class="cls-1" d="M1860.56,57.14a45.22,45.22,0,0,0,7-.29C1866.08,56.86,1862.81,56.92,1860.56,57.14Z"/><polygon class="cls-1" points="1880.73 59.05 1878.14 58.69 1871.97 58.56 1880.73 59.05"/><path class="cls-1" d="M1755.47,56.91l-9.54.5c-1,.6,1.63,1,5.18.73C1753.4,57.72,1756.94,57.49,1755.47,56.91Z"/><path class="cls-1" d="M1784.33,61.69a11.64,11.64,0,0,1-4.21-1.33l-.29,2.17Z"/><path class="cls-1" d="M1756.5,62.2c-1,.6-13.85,1.72-1.75,1.58C1755.72,63.19,1765.28,62.69,1756.5,62.2Z"/><polygon class="cls-1" points="1612.71 59.46 1615.14 59.43 1614.79 55.88 1612.71 59.46"/><path class="cls-1" d="M1486,68c11.31.85,2.69-2.19,12.91-1.13,2.65-.84-8.35-.87-5.63-1.59C1486.42,66.12,1482.84,65.62,1486,68Z"/><path class="cls-1" d="M1493.25,65.23c1.09-.14,2.25-.31,3.48-.54A25.94,25.94,0,0,0,1493.25,65.23Z"/><polygon class="cls-1" points="62.68 50 55.41 49.26 60.1 50.45 62.68 50"/><path class="cls-1" d="M48.72,52.64,47,50.37l-4.36,2.05C44.28,52.32,47.47,52.13,48.72,52.64Z"/><path class="cls-1" d="M1042.41,70.72l.55-.55c-1.12-.59-2.82-.63-6.23-.72Z"/><polygon class="cls-1" points="943.79 69.03 945.48 69.07 942.31 67.03 943.79 69.03"/><path class="cls-1" d="M861,71.63c3.38.09,7.35-.37,10.74-.28C864.39,71.72,860.1,69.09,861,71.63Z"/></svg>